<?xml version="1.0" encoding="UTF-8"?>
<!DOCTYPE svg PUBLIC "-//W3C//DTD SVG 1.1//EN" "http://www.w3.org/Graphics/SVG/1.1/DTD/svg11.dtd">
<!-- Creator: CorelDRAW X7 -->
<svg xmlns="http://www.w3.org/2000/svg" xml:space="preserve" width="240px" height="240px" version="1.1" style="shape-rendering:geometricPrecision; text-rendering:geometricPrecision; image-rendering:optimizeQuality; fill-rule:evenodd; clip-rule:evenodd"
viewBox="0 0 240 240"
 xmlns:xlink="http://www.w3.org/1999/xlink">
 <defs>
  <style type="text/css">
   <![CDATA[
    .fil0 {fill:white}
   ]]>
  </style>
 </defs>
 <g id="圖層_x0020_1">
  <metadata id="CorelCorpID_0Corel-Layer"/>
  <path class="fil0" d="M50 211l140 0c17,0 31,-15 31,-32l0 -118c0,-17 -14,-32 -31,-32l-140 0c-17,0 -31,15 -31,32l0 118c0,17 14,32 31,32zm121 -40l-23 0 -8 -23 -41 0 -8 23 -22 0 40 -102 21 0 41 102zm-38 -40l-14 -38 -13 38 27 0zm-66 59l106 0c14,0 26,-11 26,-25l0 -90c0,-14 -12,-25 -26,-25l-106 0c-14,0 -26,11 -26,25l0 90c0,14 12,25 26,25z"/>
 </g>
</svg>
