<?xml version="1.0" encoding="UTF-8"?>
<!DOCTYPE svg PUBLIC "-//W3C//DTD SVG 1.1//EN" "http://www.w3.org/Graphics/SVG/1.1/DTD/svg11.dtd">
<!-- Creator: CorelDRAW X7 -->
<svg xmlns="http://www.w3.org/2000/svg" xml:space="preserve" width="640px" height="110px" version="1.1" style="shape-rendering:geometricPrecision; text-rendering:geometricPrecision; image-rendering:optimizeQuality; fill-rule:evenodd; clip-rule:evenodd"
viewBox="0 0 640 110"
 xmlns:xlink="http://www.w3.org/1999/xlink">
 <defs>
  <style type="text/css">
   <![CDATA[
    .fil0 {fill:#5F5D5D;fill-rule:nonzero}
   ]]>
  </style>
 </defs>
 <g id="圖層_x0020_1">
  <metadata id="CorelCorpID_0Corel-Layer"/>
  <g id="_5060468384">
   <path class="fil0" d="M418 97c-3,-4 -7,-7 -12,-10l8 0 0 -63 -17 0 1 -5 20 0 0 -13 -51 0 0 9 -13 0 0 -13 -12 0 0 34 -3 0 0 -25 -12 0 0 25 -7 0 0 13 9 0 0 0c-2,8 -5,15 -9,23l-1 1 9 11 1 -2c2,-3 4,-7 5,-11l2 9 8 0c2,0 3,0 4,-1 0,0 0,0 0,0 -5,7 -13,12 -23,15l-2 1 7 13 1 -1c11,-4 20,-10 26,-18 5,-6 10,-15 13,-25l0 23 7 0c-4,3 -9,7 -15,10l-2 1 9 10 1 -1c6,-3 13,-9 20,-16l2 -2 -5 -2 8 0 -4 4 2 1c1,1 2,2 3,3 5,3 9,7 13,10l3 3 7 -10 -1 -1zm-16 -28l0 0 0 5 -20 0 0 -5 20 0zm0 -16l0 0 0 4 -20 0 0 -4 20 0zm0 -16l0 0 0 4 -20 0 0 -4 20 0zm-34 -9l0 0 0 -9 17 0 0 2c0,1 -1,2 -1,3l-14 0 0 12 -16 0 0 -8 14 0zm-8 26l0 0c-2,6 -4,11 -6,16 0,-1 0,-2 0,-4l0 -17 16 0 0 6 -10 -3 0 2zm-19 -1l0 0 0 -2 -7 -2 8 0 0 15c0,2 0,2 -1,2l-4 0c1,-4 2,-8 4,-13z"/>
   <path class="fil0" d="M628 80c0,0 -2,7 -3,9 -1,-10 -1,-26 0,-45 0,-2 -1,-3 -1,-4 -1,0 -2,-1 -4,-1l-76 0c3,-3 6,-8 7,-10l0 7 69 0 0 -12 -66 0c1,0 2,-2 2,-3l69 0 0 -12 -64 0c0,0 2,-5 3,-7 0,0 -13,0 -13,0 -3,7 -5,13 -7,16 -3,4 -6,8 -10,11l-1 1 8 11 0 11 13 0 -7 5 1 2c3,3 6,7 9,11l-17 0 0 12 24 0c-8,6 -17,10 -27,13l-1 1 6 11 1 0c8,-3 18,-8 28,-17l0 18 11 0 0 -19c9,5 18,11 26,18l1 1 6 -7c0,1 -1,1 0,2 2,3 5,5 8,5l0 0c2,0 5,0 7,-2 5,-7 10,-24 10,-24l-12 -2zm-17 -10l0 0 -15 0c3,-4 6,-8 9,-12l1 -1 -5 -5 11 0c-1,6 -1,12 -1,18zm-15 -18l0 0c-5,6 -7,9 -9,11l-1 1 5 6 -9 0 0 -18 14 0zm-5 30l0 0 21 0c0,2 0,5 0,8 1,2 1,4 1,6 -8,-6 -15,-11 -22,-14zm29 -41l0 0 0 0 0 0zm-49 11l0 0 0 18 -9 0 6 -4 -1 -2c-4,-5 -7,-10 -10,-12l14 0z"/>
   <g>
    <polygon class="fil0" points="197,15 158,15 158,2 141,2 141,15 102,15 102,31 197,31 "/>
    <polygon class="fil0" points="173,93 184,36 170,36 158,93 141,93 129,36 115,36 127,93 99,93 99,108 199,108 199,93 "/>
   </g>
   <g>
    <path class="fil0" d="M304 95c-10,0 -19,-1 -28,-3 5,-3 9,-7 13,-11l16 0 0 -12 -58 0 -3 -3 27 0 0 -1 4 2c2,-3 4,-7 6,-11 0,-1 0,-1 0,-2 0,0 0,0 0,-1l-7 -3c-1,3 -2,5 -3,7l0 -13 -26 0c0,-1 -1,-2 -1,-3l27 0 0 -8 -28 0 0 6c-1,-3 -2,-5 -3,-7 0,-1 0,-1 0,-1l0 -1 -6 1c3,-3 6,-7 8,-11l32 0 0 -10 -11 0 -3 -8 -12 0c0,0 4,9 4,8l-11 0 0 2 -7 0 -1 2c0,1 -1,2 -2,4l-2 3 -6 0c6,-8 11,-19 11,-19l-11 0c0,0 -7,12 -11,20 0,0 0,9 0,9l10 0c-2,2 -6,5 -10,8l0 0 0 9 3 0c-2,6 -4,12 -6,16l7 3c2,-3 4,-8 5,-14 1,0 1,0 1,-1 0,0 0,-1 0,-1l-6 -3 7 0 0 20 9 0 0 -20c0,0 4,0 4,0l1 1 -4 4c2,2 4,6 5,9l0 1c-6,8 -14,13 -26,17l-2 1 7 11 1 0c1,-1 2,-1 3,-2 5,-2 10,-4 13,-7l1 0c3,4 7,7 10,9 -6,2 -12,3 -17,3 -8,0 -13,0 -15,0l-3 0 6 13 2 0c3,-1 5,-1 7,-1 13,-1 25,-3 35,-7 10,3 21,6 33,7 2,0 4,1 7,1l1 0 6 -13 -3 0zm-32 -14l0 0c-4,2 -8,5 -12,6l-1 0c-4,-2 -7,-4 -10,-6l23 0zm-31 -18l0 0 3 -2 0 4 -3 -2zm12 -6l0 0 0 -4 9 0 0 4 -9 0zm-9 -9l0 0 0 9c-2,-3 -4,-5 -5,-7l5 -2zm-10 -12l0 0 0 2 -7 0c2,-2 3,-3 5,-5l2 3z"/>
    <polygon class="fil0" points="271,31 271,22 243,22 243,31 "/>
    <path class="fil0" d="M273 22l0 9 10 0c-2,2 -6,5 -10,8l0 0 0 9 10 0 0 20 9 0 0 -20c0,0 6,0 6,0l0 0 -5 3c2,5 5,10 7,16l7 -5c-2,-5 -4,-9 -7,-12l7 -2 0 -2c-1,0 -1,-1 -1,-1 -1,-5 -3,-10 -4,-13 0,-1 -1,-1 -1,-1l0 -1 -6 1c6,-7 11,-19 11,-19l-11 0c0,0 -4,9 -5,9 0,0 -5,0 -5,0 4,-6 10,-19 10,-19l-11 0c0,0 -5,11 -11,20zm22 14l0 0 0 2 -7 0c2,-2 4,-3 6,-5l1 3z"/>
   </g>
   <path class="fil0" d="M0 6l0 102 85 0 0 -102 -85 0zm70 87l0 0 -56 0 0 -28 56 0 0 28zm0 -44l0 0 -56 0 0 -28 56 0 0 28z"/>
   <g>
    <path class="fil0" d="M457 52c0,0 -1,13 0,14 0,0 41,0 41,0 0,1 -7,9 -17,15l-15 -10 -9 12 2 2c1,0 2,1 3,2 7,4 12,7 14,9l19 12 9 -12 -8 -6 -2 -1c9,-8 18,-17 24,-24 -1,0 0,-13 0,-13l-61 0z"/>
    <path class="fil0" d="M443 34c0,0 1,1 1,1 7,-5 13,-10 13,-10l-2 -2c-5,-6 -11,-11 -17,-15l-2 -1 -10 11 2 2c6,5 11,9 15,14z"/>
    <path class="fil0" d="M527 36c-8,-4 -15,-8 -21,-13 -5,-5 -10,-12 -14,-20l-1 -1 -12 0 -1 1c-5,12 -19,24 -36,35 0,0 10,13 10,13 12,-8 24,-18 33,-32 9,14 20,23 33,31l2 1 8 -13 -1 -2z"/>
    <polygon class="fil0" points="498,44 489,56 472,42 481,31 "/>
    <path class="fil0" d="M428 91l-2 1 12 12 2 -2c5,-9 11,-21 16,-34l-13 -10c-5,15 -9,25 -15,33z"/>
   </g>
  </g>
 </g>
</svg>
