<?xml version="1.0" encoding="UTF-8"?>
<!DOCTYPE svg PUBLIC "-//W3C//DTD SVG 1.1//EN" "http://www.w3.org/Graphics/SVG/1.1/DTD/svg11.dtd">
<!-- Creator: CorelDRAW X7 -->
<svg xmlns="http://www.w3.org/2000/svg" xml:space="preserve" width="600px" height="400px" version="1.1" style="shape-rendering:geometricPrecision; text-rendering:geometricPrecision; image-rendering:optimizeQuality; fill-rule:evenodd; clip-rule:evenodd"
viewBox="0 0 600 400"
 xmlns:xlink="http://www.w3.org/1999/xlink">
 <defs>
  <style type="text/css">
   <![CDATA[
    .str1 {stroke:white;stroke-width:2.24986}
    .str2 {stroke:white;stroke-width:4.5}
    .str0 {stroke:white;stroke-width:7.49991;stroke-linejoin:round}
    .fil1 {fill:none}
    .fil0 {fill:white}
   ]]>
  </style>
 </defs>
 <g id="圖層_x0020_1">
  <metadata id="CorelCorpID_0Corel-Layer"/>
  <path class="fil0" d="M70 327c2,5 9,11 28,10 30,-2 414,-34 414,-34 0,0 48,-22 52,-31 5,-10 11,-21 11,-21 0,-24 7,-119 -15,-132 -16,-9 -20,-16 -21,-16l-404 -39c0,0 -39,4 -52,7 -10,3 -11,7 -11,13l-21 4c0,0 -9,2 -10,15 0,7 -3,54 -4,102 -1,51 0,103 0,103 0,0 1,7 7,9l26 10z"/>
  <path class="fil1 str0" d="M69 322c0,0 -1,16 29,15 30,-2 414,-34 414,-34 0,0 48,-22 52,-31 5,-10 11,-21 11,-21 0,-24 1,-112 -15,-132 -9,-12 -20,-16 -21,-16l-404 -39c0,0 -39,4 -52,7 -13,4 -11,9 -11,19 -1,80 -6,153 -3,232z"/>
  <line class="fil1 str1" x1="148" y1="268" x2="555" y2= "254" />
  <g id="_1089508720">
   <path class="fil1 str0" d="M72 316c0,0 -1,16 28,15 29,-2 398,-33 398,-33 0,0 46,-21 50,-30 5,-8 10,-20 10,-20 1,-22 2,-108 -14,-127 -9,-11 -19,-15 -20,-15l-389 -37c0,0 -37,4 -49,7 -13,3 -11,8 -11,18 -1,76 -6,146 -3,222z"/>
   <path class="fil1 str0" d="M75 88l-20 3c0,0 -9,3 -10,16 0,6 -3,51 -3,97 -1,49 0,99 0,99 0,0 0,7 6,9 6,2 15,6 25,9"/>
   <path class="fil1 str2" d="M139 328l30 -25c0,0 9,-8 24,-9l298 -16c5,0 21,-1 15,6 -5,5 -9,8 -16,15"/>
   <path class="fil1 str2" d="M143 71c0,0 -18,-3 -18,18 3,61 20,100 5,181 -2,9 -10,23 -25,38"/>
   <line class="fil1 str1" x1="149" y1="265" x2="539" y2= "251" />
  </g>
 </g>
</svg>
