<?xml version="1.0" encoding="UTF-8"?>
<!DOCTYPE svg PUBLIC "-//W3C//DTD SVG 1.1//EN" "http://www.w3.org/Graphics/SVG/1.1/DTD/svg11.dtd">
<!-- Creator: CorelDRAW X7 -->
<svg xmlns="http://www.w3.org/2000/svg" xml:space="preserve" width="240px" height="240px" version="1.1" style="shape-rendering:geometricPrecision; text-rendering:geometricPrecision; image-rendering:optimizeQuality; fill-rule:evenodd; clip-rule:evenodd"
viewBox="0 0 240 240"
 xmlns:xlink="http://www.w3.org/1999/xlink">
 <defs>
  <style type="text/css">
   <![CDATA[
    .fil0 {fill:black}
   ]]>
  </style>
 </defs>
 <g id="圖層_x0020_1">
  <metadata id="CorelCorpID_0Corel-Layer"/>
  <polygon class="fil0" points="110,7 130,7 130,39 158,23 158,44 130,60 130,102 166,81 165,50 183,39 184,70 211,54 221,72 194,88 221,105 203,116 175,99 140,120 175,141 203,124 221,135 194,152 221,168 211,186 184,170 183,201 165,190 166,159 130,138 130,180 158,196 158,217 130,201 130,233 110,233 110,201 82,217 82,196 110,180 110,138 73,159 75,190 57,201 56,170 29,186 19,168 46,152 19,135 37,124 65,141 100,120 65,99 37,116 19,105 46,88 19,72 29,54 56,70 57,39 75,50 73,81 110,102 110,60 82,44 82,23 110,39 "/>
 </g>
</svg>
