<?xml version="1.0" encoding="UTF-8"?>
<!DOCTYPE svg PUBLIC "-//W3C//DTD SVG 1.1//EN" "http://www.w3.org/Graphics/SVG/1.1/DTD/svg11.dtd">
<!-- Creator: CorelDRAW X7 -->
<svg xmlns="http://www.w3.org/2000/svg" xml:space="preserve" width="240px" height="240px" version="1.1" style="shape-rendering:geometricPrecision; text-rendering:geometricPrecision; image-rendering:optimizeQuality; fill-rule:evenodd; clip-rule:evenodd"
viewBox="0 0 240 240"
 xmlns:xlink="http://www.w3.org/1999/xlink">
 <defs>
  <style type="text/css">
   <![CDATA[
    .fil0 {fill:white}
   ]]>
  </style>
 </defs>
 <g id="圖層_x0020_1">
  <metadata id="CorelCorpID_0Corel-Layer"/>
  <path class="fil0" d="M155 19c0,13 5,27 16,36 11,10 25,13 38,10 -9,10 -13,24 -11,38 3,15 12,26 23,32 -13,2 -25,10 -32,22 -8,13 -8,28 -3,40 -11,-7 -26,-9 -39,-4 -14,5 -23,15 -27,28 -4,-13 -14,-24 -27,-29 -14,-5 -28,-3 -39,5 5,-13 4,-28 -3,-40 -7,-13 -19,-20 -32,-22 12,-7 21,-18 23,-32 2,-15 -2,-29 -11,-39 13,3 27,0 38,-9 11,-9 17,-23 16,-36 8,10 21,17 35,17 15,0 27,-6 35,-17zm-35 49c27,0 48,21 48,48 0,27 -21,49 -48,49 -26,0 -48,-22 -48,-49 0,-27 22,-48 48,-48zm0 7c22,0 41,19 41,41 0,23 -19,41 -41,41 -22,0 -40,-18 -40,-41 0,-22 18,-41 40,-41zm0 -18c33,0 59,27 59,60 0,33 -26,60 -59,60 -33,0 -59,-27 -59,-60 0,-33 26,-60 59,-60z"/>
 </g>
</svg>
