<?xml version="1.0" encoding="UTF-8"?>
<!DOCTYPE svg PUBLIC "-//W3C//DTD SVG 1.1//EN" "http://www.w3.org/Graphics/SVG/1.1/DTD/svg11.dtd">
<!-- Creator: CorelDRAW X7 -->
<svg xmlns="http://www.w3.org/2000/svg" xml:space="preserve" width="240px" height="240px" version="1.1" style="shape-rendering:geometricPrecision; text-rendering:geometricPrecision; image-rendering:optimizeQuality; fill-rule:evenodd; clip-rule:evenodd"
viewBox="0 0 240 240"
 xmlns:xlink="http://www.w3.org/1999/xlink">
 <defs>
  <style type="text/css">
   <![CDATA[
    .fil0 {fill:#EE7C1C}
   ]]>
  </style>
 </defs>
 <g id="圖層_x0020_1">
  <metadata id="CorelCorpID_0Corel-Layer"/>
  <path class="fil0" d="M134 19c-11,12 -18,28 -28,42 -8,12 -18,24 -26,36 -6,10 -12,19 -17,29 -3,8 -6,17 -7,25 0,9 0,19 4,28 2,7 5,12 10,19 3,4 9,9 14,12 6,4 10,7 17,9 6,1 13,3 19,2 8,-1 17,-2 24,-5 7,-4 11,-6 18,-11 5,-5 9,-10 12,-16 4,-7 6,-10 7,-16 1,-6 3,-11 3,-17 0,-5 0,-11 -2,-17 -1,-5 -3,-10 -5,-15 -3,-7 -5,-12 -9,-19 -3,-8 -5,-11 -11,-21 -5,-8 -10,-18 -15,-26 -3,-5 -4,-10 -6,-17 -3,-7 -2,-15 -2,-22zm29 99c5,5 15,33 13,44 -2,11 -11,7 -10,-1 1,-7 -6,-28 -9,-35 -3,-6 1,-12 6,-8zm-14 -22c4,0 7,3 7,7 0,4 -3,7 -7,7 -4,0 -7,-3 -7,-7 0,-4 3,-7 7,-7z"/>
 </g>
</svg>
