<?xml version="1.0" encoding="UTF-8"?>
<!DOCTYPE svg PUBLIC "-//W3C//DTD SVG 1.1//EN" "http://www.w3.org/Graphics/SVG/1.1/DTD/svg11.dtd">
<!-- Creator: CorelDRAW X7 -->
<svg xmlns="http://www.w3.org/2000/svg" xml:space="preserve" width="240px" height="240px" version="1.1" style="shape-rendering:geometricPrecision; text-rendering:geometricPrecision; image-rendering:optimizeQuality; fill-rule:evenodd; clip-rule:evenodd"
viewBox="0 0 240 240"
 xmlns:xlink="http://www.w3.org/1999/xlink">
 <defs>
  <style type="text/css">
   <![CDATA[
    .fil0 {fill:black}
   ]]>
  </style>
 </defs>
 <g id="圖層_x0020_1">
  <metadata id="CorelCorpID_0Corel-Layer"/>
  <path class="fil0" d="M155 214l-10 -9 -8 -11 -6 -10 -5 -11 -3 -12 1 -7c-1,0 -3,0 -4,0 -2,0 -5,0 -8,-1l0 1 -4 11 -1 11 0 12 3 14 2 11 3 8 -11 -1 -9 -2 -9 -3 -9 -3 -9 -6 -9 -6 -8 -6 -8 -9 -6 -7 -5 -9 -5 -9 -3 -8 -2 -10 -2 -9 -1 -10 0 -12 2 -8 13 -4 13 -1 12 -1 12 2 12 3 6 5c2,-4 4,-7 7,-10l-1 -1 -8 -9 -9 -7 -10 -5 -14 -5 -10 -4 -9 -2 6 -8 7 -7 7 -7 7 -6 9 -5 10 -4 10 -4 11 -3 9 -1 11 0 9 0 10 2 9 2 9 3 9 5 10 6 7 5 -4 14 -5 12 -6 10 -7 10 -9 8 -7 4c2,3 4,6 5,10l1 0 12 -2 10 -5 10 -6 11 -9 9 -7 6 -7 4 10 2 8 3 10 1 9 0 11 -1 11 -1 10 -4 11 -3 9 -6 9 -4 8 -7 7 -6 7 -7 6 -9 6 -10 5 -8 3zm-35 -107c7,0 13,6 13,13 0,7 -6,13 -13,13 -7,0 -13,-6 -13,-13 0,-7 6,-13 13,-13z"/>
 </g>
</svg>
